<svg xmlns="http://www.w3.org/2000/svg" viewBox="0 0 200 60" fill="currentColor">
  <!-- VRBO Logo -->
  <path d="M15.5 15L8 45h8l4.5-18 4.5 18h8l-7.5-30h-10z"/>
  <path d="M45 15v30h8V33h6c6 0 10-3 10-9s-4-9-10-9h-14zm8 7h5c2.5 0 3.5 1 3.5 3s-1 3-3.5 3h-5v-6z"/>
  <path d="M81 15v30h8V35h4l4 10h9l-5-11c3-1.5 5-4 5-8 0-6-4-11-11-11h-14zm8 7h5c3 0 4.5 1.5 4.5 4s-1.5 4-4.5 4h-5v-8z"/>
  <path d="M128 15h-16v30h8V37h7c7 0 11-4 11-11s-4-11-10-11zm-8 7h7c3 0 4 1.5 4 4s-1 4-4 4h-7v-8z"/>
  <path d="M155 15c-8.5 0-14 6-14 15s5.5 15 14 15 14-6 14-15-5.5-15-14-15zm0 7c4 0 6 3 6 8s-2 8-6 8-6-3-6-8 2-8 6-8z"/>
</svg>
